<svg xmlns="http://www.w3.org/2000/svg" viewBox="0 0 24 24" role="img" aria-label="Позвонить">
  <circle cx="12" cy="12" r="12" fill="#6a4b35"/>
  <g transform="translate(3.35 3.35) scale(.72)">
    <path d="M22 16.92v3a2 2 0 0 1-2.18 2 19.79 19.79 0 0 1-8.63-3.07 19.5 19.5 0 0 1-6-6A19.79 19.79 0 0 1 2.12 4.18 2 2 0 0 1 4.11 2h3a2 2 0 0 1 2 1.72c.12.9.33 1.78.62 2.63a2 2 0 0 1-.45 2.11L8 9.73a16 16 0 0 0 6 6l1.27-1.27a2 2 0 0 1 2.11-.45c.85.29 1.73.5 2.63.62A2 2 0 0 1 22 16.92z" fill="none" stroke="#fff" stroke-width="1.8" stroke-linecap="round" stroke-linejoin="round"/>
  </g>
</svg>